<?xml version="1.0" encoding="utf-8"?>
<!-- Generator: Adobe Illustrator 19.1.0, SVG Export Plug-In . SVG Version: 6.00 Build 0)  -->
<!DOCTYPE svg PUBLIC "-//W3C//DTD SVG 1.1//EN" "http://www.w3.org/Graphics/SVG/1.1/DTD/svg11.dtd">
<svg version="1.1" id="Capa_1" xmlns="http://www.w3.org/2000/svg" xmlns:xlink="http://www.w3.org/1999/xlink" x="0px" y="0px"
	 viewBox="0 0 1919.456 548.742" enable-background="new 0 0 1919.456 548.742" xml:space="preserve">
<g>
	<path fill="#00C6FF" d="M325.517,235.342c0,56.079-15.961,99.03-47.884,128.855s-78.022,44.738-138.292,44.738H42.874V68.272
		h106.952c55.609,0,98.797,14.68,129.555,44.039C310.138,141.671,325.517,182.682,325.517,235.342z M250.487,237.206
		c0-73.166-32.312-109.748-96.933-109.748h-38.447v221.826h30.99C215.688,349.284,250.487,311.927,250.487,237.206z"/>
	<path fill="#00C6FF" d="M520,408.936l-4.951-34.063h-1.584c-10.828,13.862-21.952,23.666-33.371,29.409
		c-11.422,5.743-24.923,8.615-40.5,8.615c-21.126,0-37.564-5.412-49.313-16.24c-11.753-10.824-17.626-25.811-17.626-44.956
		c0-20.993,8.744-37.298,26.24-48.917c17.493-11.617,42.81-17.756,75.951-18.419l40.995-1.188v-14.26
		c0-20.464-4.159-35.911-12.477-46.343c-8.318-10.428-21.72-15.646-40.203-15.646c-19.938,0-40.6,5.545-61.988,16.636l-7.328-17.032
		c23.633-11.09,47.002-16.636,70.108-16.636c23.633,0,41.292,6.14,52.978,18.419c11.685,12.278,17.526,31.424,17.526,57.433v143.188
		H520z M440.781,395.072c22.974,0,41.095-6.566,54.364-19.705c13.269-13.137,19.903-31.391,19.903-54.76v-21.191l-37.629,1.585
		c-30.235,1.454-51.789,6.173-64.662,14.16c-12.873,7.989-19.31,20.433-19.31,37.331c0,13.468,4.125,23.933,12.378,31.391
		C414.076,391.344,425.73,395.072,440.781,395.072z"/>
	<path fill="#00C6FF" d="M688.934,189.501c9.109,0,18.879,0.925,29.311,2.772l-3.763,18.814c-8.98-2.244-18.289-3.367-27.925-3.367
		c-18.354,0-33.404,7.792-45.154,23.369c-11.753,15.581-17.626,35.253-17.626,59.019v118.827H604.17V193.659h16.636l1.98,38.817
		h1.386c8.845-15.844,18.285-26.965,28.321-33.371C662.525,192.703,674.674,189.501,688.934,189.501z"/>
	<path fill="#00C6FF" d="M934.114,408.936l-47.136-143.979c-3.038-9.77-6.932-24.094-11.685-42.976h-1.188l-4.158,14.655
		l-8.912,28.717l-47.928,143.583h-19.408l-61.592-215.276H753.1l34.46,124.77c8.052,30.895,13.334,53.605,15.844,68.128h1.188
		c7.789-30.896,13.467-51.424,17.032-61.593l44.362-131.305h17.824l42.184,130.909c9.506,31.028,15.314,51.56,17.428,61.592h1.188
		c1.056-8.581,6.338-31.554,15.844-68.92l32.876-123.581h19.805l-58.424,215.276H934.114z"/>
	<path fill="#00C6FF" d="M1052.545,133.85c0-12.675,4.159-19.013,12.478-19.013c4.091,0,7.293,1.653,9.604,4.951
		c2.309,3.302,3.466,7.99,3.466,14.062c0,5.941-1.157,10.63-3.466,14.062c-2.312,3.435-5.514,5.149-9.604,5.149
		C1056.704,153.061,1052.545,146.658,1052.545,133.85z M1074.925,408.936h-19.607V193.659h19.607V408.936z"/>
	<path fill="#00C6FF" d="M1297.132,408.936V269.313c0-21.652-4.555-37.396-13.665-47.234c-9.11-9.834-23.239-14.754-42.382-14.754
		c-25.746,0-44.595,6.504-56.542,19.507c-11.951,13.006-17.923,34.099-17.923,63.276v118.827h-19.607V193.659h16.637l3.763,29.51
		h1.188c13.993-22.444,38.882-33.668,74.663-33.668c48.849,0,73.276,26.21,73.276,78.624v140.811H1297.132z"/>
	<path fill="#00C6FF" d="M1589.279,408.936h-196.196V68.272h196.196v59.186h-123.963v74.796h115.341v59.186h-115.341v87.845h123.963
		V408.936z"/>
	<path fill="#00C6FF" d="M1737.24,413.596c-30.604,0-54.641-11.884-72.117-35.65c-17.476-23.768-26.213-56.698-26.213-98.797
		c0-42.718,8.891-75.998,26.68-99.846c17.785-23.844,42.291-35.768,73.515-35.768c32.774,0,57.787,12.739,75.03,38.214h2.33
		c-3.575-19.416-5.359-36.735-5.359-51.961V46.369h71.302v362.566h-54.525l-13.747-33.787h-3.029
		C1794.947,400.78,1770.328,413.596,1737.24,413.596z M1762.173,356.974c18.175,0,31.493-5.279,39.962-15.845
		c8.465-10.562,13.085-28.504,13.863-53.825v-7.689c0-27.962-4.311-48.001-12.932-60.117s-22.643-18.175-42.059-18.175
		c-15.845,0-28.158,6.721-36.933,20.155c-8.777,13.438-13.165,32.972-13.165,58.603c0,25.632,4.428,44.854,13.282,57.671
		C1733.046,350.566,1745.705,356.974,1762.173,356.974z"/>
</g>
<g>
	<path fill="#00C6FF" d="M75.35,493.758c0,4.289-1.576,7.688-4.729,10.195s-7.342,3.762-12.568,3.762
		c-6.281,0-11.098-0.691-14.449-2.074v-3.586c3.703,1.57,8.426,2.355,14.168,2.355c4.219,0,7.564-0.967,10.037-2.9
		s3.709-4.471,3.709-7.611c0-1.945-0.41-3.557-1.23-4.834s-2.156-2.443-4.008-3.498s-4.57-2.191-8.156-3.41
		c-5.25-1.805-8.877-3.756-10.881-5.854s-3.006-4.893-3.006-8.385c0-3.844,1.506-6.979,4.518-9.404s6.885-3.639,11.619-3.639
		c4.828,0,9.363,0.914,13.605,2.742l-1.301,3.094c-4.266-1.781-8.344-2.672-12.234-2.672c-3.797,0-6.82,0.879-9.07,2.637
		s-3.375,4.148-3.375,7.172c0,1.898,0.346,3.457,1.037,4.676s1.822,2.314,3.393,3.287s4.266,2.139,8.086,3.498
		c4.008,1.383,7.02,2.725,9.035,4.025s3.486,2.777,4.412,4.43S75.35,491.414,75.35,493.758z"/>
	<path fill="#00C6FF" d="M142.309,481.242c0,8.156-2.039,14.607-6.117,19.354s-9.703,7.119-16.875,7.119
		c-7.148,0-12.762-2.373-16.84-7.119s-6.117-11.221-6.117-19.424c0-8.18,2.057-14.619,6.17-19.318s9.732-7.049,16.857-7.049
		c7.172,0,12.785,2.361,16.84,7.084S142.309,473.062,142.309,481.242z M100.262,481.242c0,7.359,1.641,13.049,4.922,17.068
		s7.992,6.029,14.133,6.029c6.188,0,10.916-1.992,14.186-5.977s4.904-9.691,4.904-17.121c0-7.406-1.635-13.084-4.904-17.033
		s-7.975-5.924-14.115-5.924c-6.117,0-10.834,1.992-14.15,5.977S100.262,473.906,100.262,481.242z"/>
	<path fill="#00C6FF" d="M170.595,507.012h-3.586v-51.398h28.16v3.305h-24.574v21.797h23.203v3.34h-23.203V507.012z"/>
	<path fill="#00C6FF" d="M229.432,507.012h-3.621v-48.023h-16.699v-3.375h37.02v3.375h-16.699V507.012z"/>
	<path fill="#00C6FF" d="M307.605,507.012h-2.953l-11.285-39.656c-0.938-3.258-1.641-5.93-2.109-8.016
		c-0.375,2.039-0.909,4.383-1.6,7.031c-0.691,2.648-4.471,16.195-11.338,40.641h-3.023l-14.133-51.398h3.762l9,33.117
		c0.352,1.336,0.68,2.572,0.984,3.709c0.304,1.137,0.58,2.203,0.826,3.199s0.469,1.957,0.668,2.883
		c0.198,0.926,0.381,1.857,0.545,2.795c0.562-3.188,1.758-8.027,3.586-14.52l8.789-31.184h3.973l10.301,35.789
		c1.195,4.125,2.051,7.453,2.566,9.984c0.304-1.688,0.697-3.48,1.178-5.379c0.479-1.898,4.096-15.363,10.846-40.395h3.621
		L307.605,507.012z"/>
	<path fill="#00C6FF" d="M368.517,488.871h-20.883l-7.172,18.141h-3.973l20.672-51.609h2.285l20.25,51.609h-4.043L368.517,488.871z
		 M348.935,485.637h18.387l-6.996-18.527c-0.586-1.453-1.289-3.469-2.109-6.047c-0.633,2.25-1.324,4.289-2.074,6.117
		L348.935,485.637z"/>
	<path fill="#00C6FF" d="M403.447,484.617v22.395h-3.586v-51.398h12.234c6.375,0,11.086,1.178,14.133,3.533s4.57,5.9,4.57,10.635
		c0,3.445-0.908,6.352-2.725,8.719s-4.576,4.066-8.279,5.098l13.957,23.414h-4.289l-13.254-22.395H403.447z M403.447,481.523h9.809
		c4.336,0,7.699-0.967,10.09-2.9s3.586-4.787,3.586-8.561c0-3.914-1.172-6.762-3.516-8.543s-6.164-2.672-11.461-2.672h-8.508
		V481.523z"/>
	<path fill="#00C6FF" d="M483.625,507.012h-28.09v-51.398h28.09v3.305h-24.504v19.441h23.133v3.305h-23.133v22.043h24.504V507.012z"
		/>
	<path fill="#00C6FF" d="M578.764,480.82c0,8.625-2.262,15.146-6.785,19.564s-11.168,6.627-19.934,6.627H539.74v-51.398h13.887
		c8.203,0,14.443,2.145,18.721,6.434S578.764,472.594,578.764,480.82z M574.861,480.961c0-7.359-1.869-12.896-5.607-16.611
		s-9.229-5.572-16.471-5.572h-9.457v45.07h8.508C567.186,503.848,574.861,496.219,574.861,480.961z"/>
	<path fill="#00C6FF" d="M631.555,507.012h-28.09v-51.398h28.09v3.305h-24.504v19.441h23.133v3.305h-23.133v22.043h24.504V507.012z"
		/>
	<path fill="#00C6FF" d="M718.607,470.379c0,4.969-1.688,8.777-5.062,11.426s-8.156,3.973-14.344,3.973h-7.945v21.234h-3.586
		v-51.398h12.586C712.49,455.613,718.607,460.535,718.607,470.379z M691.256,482.684h7.066c5.789,0,9.973-0.955,12.551-2.865
		s3.867-5.01,3.867-9.299c0-3.961-1.219-6.896-3.656-8.807s-6.211-2.865-11.32-2.865h-8.508V482.684z"/>
	<path fill="#00C6FF" d="M742.676,507.012v-51.398h3.586v48.023h24.504v3.375H742.676z"/>
	<path fill="#00C6FF" d="M817.263,488.871H796.38l-7.172,18.141h-3.973l20.672-51.609h2.285l20.25,51.609h-4.043L817.263,488.871z
		 M797.681,485.637h18.387l-6.996-18.527c-0.586-1.453-1.289-3.469-2.109-6.047c-0.633,2.25-1.324,4.289-2.074,6.117
		L797.681,485.637z"/>
	<path fill="#00C6FF" d="M885.979,507.012h-3.621l-30.445-45.633h-0.281c0.281,5.438,0.422,9.539,0.422,12.305v33.328h-3.445
		v-51.398h3.586l30.41,45.562h0.211c-0.211-4.219-0.316-8.227-0.316-12.023v-33.539h3.48V507.012z"/>
	<path fill="#00C6FF" d="M913.422,507.012v-51.398h3.586v51.398H913.422z"/>
	<path fill="#00C6FF" d="M948.036,507.012h-3.586v-51.398h28.161v3.305h-24.575v21.797h23.204v3.34h-23.204V507.012z"/>
	<path fill="#00C6FF" d="M993.479,507.012v-51.398h3.586v51.398H993.479z"/>
	<path fill="#00C6FF" d="M1046.445,458.109c-6.445,0-11.52,2.062-15.223,6.188s-5.555,9.773-5.555,16.945
		c0,7.336,1.746,13.031,5.238,17.086s8.484,6.082,14.977,6.082c4.312,0,8.273-0.551,11.883-1.652v3.164
		c-3.398,1.195-7.641,1.793-12.727,1.793c-7.219,0-12.902-2.332-17.051-6.996s-6.223-11.18-6.223-19.547
		c0-5.227,0.99-9.832,2.971-13.816s4.828-7.061,8.543-9.229s8.033-3.252,12.955-3.252c5.016,0,9.504,0.938,13.465,2.812
		l-1.441,3.234C1054.508,459.047,1050.57,458.109,1046.445,458.109z"/>
	<path fill="#00C6FF" d="M1106.863,488.871h-20.883l-7.172,18.141h-3.973l20.672-51.609h2.285l20.25,51.609H1114L1106.863,488.871z
		 M1087.281,485.637h18.387l-6.996-18.527c-0.586-1.453-1.289-3.469-2.109-6.047c-0.633,2.25-1.324,4.289-2.074,6.117
		L1087.281,485.637z"/>
	<path fill="#00C6FF" d="M1160.146,458.109c-6.445,0-11.52,2.062-15.223,6.188s-5.555,9.773-5.555,16.945
		c0,7.336,1.746,13.031,5.238,17.086s8.484,6.082,14.977,6.082c4.312,0,8.273-0.551,11.883-1.652v3.164
		c-3.398,1.195-7.641,1.793-12.727,1.793c-7.219,0-12.902-2.332-17.051-6.996s-6.223-11.18-6.223-19.547
		c0-5.227,0.99-9.832,2.971-13.816s4.828-7.061,8.543-9.229s8.033-3.252,12.955-3.252c5.016,0,9.504,0.938,13.465,2.812
		l-1.441,3.234C1168.209,459.047,1164.271,458.109,1160.146,458.109z"/>
	<path fill="#00C6FF" d="M1195.816,507.012v-51.398h3.586v51.398H1195.816z"/>
	<path fill="#00C6FF" d="M1270.051,481.242c0,8.156-2.039,14.607-6.117,19.354s-9.703,7.119-16.875,7.119
		c-7.148,0-12.762-2.373-16.84-7.119s-6.117-11.221-6.117-19.424c0-8.18,2.057-14.619,6.17-19.318s9.732-7.049,16.857-7.049
		c7.172,0,12.785,2.361,16.84,7.084S1270.051,473.062,1270.051,481.242z M1228.004,481.242c0,7.359,1.641,13.049,4.922,17.068
		s7.992,6.029,14.133,6.029c6.188,0,10.916-1.992,14.186-5.977s4.904-9.691,4.904-17.121c0-7.406-1.635-13.084-4.904-17.033
		s-7.975-5.924-14.115-5.924c-6.117,0-10.834,1.992-14.15,5.977S1228.004,473.906,1228.004,481.242z M1243.684,450.938
		c1.711-1.852,3.404-3.861,5.08-6.029s2.818-3.814,3.428-4.939h4.957v0.598c-0.844,1.219-2.279,2.836-4.307,4.852
		s-4.26,4.043-6.697,6.082h-2.461V450.938z"/>
	<path fill="#00C6FF" d="M1332.123,507.012h-3.621l-30.445-45.633h-0.281c0.281,5.438,0.422,9.539,0.422,12.305v33.328h-3.445
		v-51.398h3.586l30.41,45.562h0.211c-0.211-4.219-0.316-8.227-0.316-12.023v-33.539h3.48V507.012z"/>
	<path fill="#00C6FF" d="M1415.906,488.871h-20.883l-7.172,18.141h-3.973l20.672-51.609h2.285l20.25,51.609h-4.043L1415.906,488.871
		z M1396.324,485.637h18.387l-6.996-18.527c-0.586-1.453-1.289-3.469-2.109-6.047c-0.633,2.25-1.324,4.289-2.074,6.117
		L1396.324,485.637z"/>
	<path fill="#00C6FF" d="M1469.189,458.109c-6.445,0-11.52,2.062-15.223,6.188s-5.555,9.773-5.555,16.945
		c0,7.336,1.746,13.031,5.238,17.086s8.484,6.082,14.977,6.082c4.312,0,8.273-0.551,11.883-1.652v3.164
		c-3.398,1.195-7.641,1.793-12.727,1.793c-7.219,0-12.902-2.332-17.051-6.996s-6.223-11.18-6.223-19.547
		c0-5.227,0.99-9.832,2.971-13.816s4.828-7.061,8.543-9.229s8.033-3.252,12.955-3.252c5.016,0,9.504,0.938,13.465,2.812
		l-1.441,3.234C1477.252,459.047,1473.314,458.109,1469.189,458.109z"/>
	<path fill="#00C6FF" d="M1529.609,488.871h-20.883l-7.172,18.141h-3.973l20.672-51.609h2.285l20.25,51.609h-4.043L1529.609,488.871
		z M1510.027,485.637h18.387l-6.996-18.527c-0.586-1.453-1.289-3.469-2.109-6.047c-0.633,2.25-1.324,4.289-2.074,6.117
		L1510.027,485.637z"/>
	<path fill="#00C6FF" d="M1599.977,480.82c0,8.625-2.262,15.146-6.785,19.564s-11.168,6.627-19.934,6.627h-12.305v-51.398h13.887
		c8.203,0,14.443,2.145,18.721,6.434S1599.977,472.594,1599.977,480.82z M1596.074,480.961c0-7.359-1.869-12.896-5.607-16.611
		s-9.229-5.572-16.471-5.572h-9.457v45.07h8.508C1588.398,503.848,1596.074,496.219,1596.074,480.961z"/>
	<path fill="#00C6FF" d="M1652.768,507.012h-28.09v-51.398h28.09v3.305h-24.504v19.441h23.133v3.305h-23.133v22.043h24.504V507.012z
		 M1633.678,450.938c1.711-1.852,3.404-3.861,5.08-6.029s2.818-3.814,3.428-4.939h4.957v0.598c-0.844,1.219-2.279,2.836-4.307,4.852
		s-4.26,4.043-6.697,6.082h-2.461V450.938z"/>
	<path fill="#00C6FF" d="M1699.898,507.012l-19.16-47.461h-0.281c0.188,2.906,0.281,5.883,0.281,8.93v38.531h-3.445v-51.398h5.555
		l18.211,45.211h0.211l18.211-45.211h5.414v51.398h-3.621v-38.953c0-2.719,0.141-5.531,0.422-8.438h-0.281l-19.23,47.391H1699.898z"
		/>
	<path fill="#00C6FF" d="M1752.301,507.012v-51.398h3.586v51.398H1752.301z"/>
	<path fill="#00C6FF" d="M1805.268,458.109c-6.445,0-11.52,2.062-15.223,6.188s-5.555,9.773-5.555,16.945
		c0,7.336,1.746,13.031,5.238,17.086s8.484,6.082,14.977,6.082c4.312,0,8.273-0.551,11.883-1.652v3.164
		c-3.398,1.195-7.641,1.793-12.727,1.793c-7.219,0-12.902-2.332-17.051-6.996s-6.223-11.18-6.223-19.547
		c0-5.227,0.99-9.832,2.971-13.816s4.828-7.061,8.543-9.229s8.033-3.252,12.955-3.252c5.016,0,9.504,0.938,13.465,2.812
		l-1.441,3.234C1813.33,459.047,1809.393,458.109,1805.268,458.109z"/>
	<path fill="#00C6FF" d="M1865.688,488.871h-20.883l-7.172,18.141h-3.973l20.672-51.609h2.285l20.25,51.609h-4.043L1865.688,488.871
		z M1846.105,485.637h18.387l-6.996-18.527c-0.586-1.453-1.289-3.469-2.109-6.047c-0.633,2.25-1.324,4.289-2.074,6.117
		L1846.105,485.637z"/>
</g>
<g>
</g>
<g>
</g>
<g>
</g>
<g>
</g>
<g>
</g>
<g>
</g>
</svg>
